<?xml version="1.0" encoding="utf-8"?>
<!-- Svg Vector Icons : http://www.onlinewebfonts.com/icon -->
<!DOCTYPE svg PUBLIC "-//W3C//DTD SVG 1.1//EN" "http://www.w3.org/Graphics/SVG/1.1/DTD/svg11.dtd">
<svg version="1.1" xmlns="http://www.w3.org/2000/svg" xmlns:xlink="http://www.w3.org/1999/xlink" x="0px" y="0px" viewBox="0 0 1000 1000" enable-background="new 0 0 1000 1000" xml:space="preserve">
<metadata> Svg Vector Icons : http://www.onlinewebfonts.com/icon </metadata>
<g><path d="M10,369.3v482.1C10,928,72,990,148.3,990h703.3c76.4,0,138.3-61.8,138.3-138.5V369.3H763.4C783,408.7,794,453.1,794,500c0,162.4-131.6,294-294,294S206,662.4,206,500c0-46.9,11-91.3,30.6-130.7H10z"/><path d="M271.3,500c0,126.3,102.4,228.7,228.7,228.7S728.7,626.3,728.7,500c0-126.3-102.4-228.7-228.7-228.7S271.3,373.7,271.3,500L271.3,500z"/><path d="M897.8,10H271.3v196h-32.7V10H206v196h-32.7V10h-32.7v196H108V10h-5.8C51.3,10,10,50.9,10,102.2V304h270.9c53.8-60.1,132.1-98,219.1-98c87.1,0,165.3,37.9,219.1,98H990V102.2C990,51.3,949.1,10,897.8,10z M892,216c0,12-10.2,22.7-22.7,22.7H751.4c-12,0-22.7-10.2-22.7-22.7V98c0-12,10.2-22.7,22.7-22.7h117.9c12,0,22.7,10.2,22.7,22.7V216z"/></g>
</svg>