<?xml version="1.0"?><svg width="793.7007874015749" height="1122.5196850393702" xmlns="http://www.w3.org/2000/svg">
 <!-- Created with SVG-edit - http://svg-edit.googlecode.com/ -->
 <title>squiggle</title>
 <g>
  <title>Layer 1</title>
  <path id="path7014" fill="#000000" fill-rule="nonzero" d="m772.991028,532.781006c-16.265015,0 -41.985046,-15.921997 -55.888,-33.287994c-14.539001,-18.109009 -15.622009,-32.776001 -32.614014,-32.776001c-16.811035,0 -15.075989,4.666992 -29.342041,22.776001c-14.175964,17.365997 -45.804993,33.287994 -62.16095,33.287994c-16.356018,0 -35.041016,2.112976 -49.125,-15.252014c-14.358032,-18.109985 -30.567017,-37.811981 -47.378021,-37.811981c-16.992004,0 -27.166016,16.666992 -41.614014,34.776001c-13.902985,17.365997 -38.713989,22.287994 -55.069977,22.287994c-16.265015,0 -33.076019,1.078003 -47.070007,-16.287994c-14.446991,-18.109009 -26.622009,-31.776001 -43.432007,-31.776001c-16.993011,0 -32.166992,10.666992 -46.523987,28.776001c-13.994003,17.365997 -25.714005,23.287994 -41.979004,23.287994c-16.447006,0 -37.167007,-2.921997 -51.251007,-20.287994c-14.266998,-18.109009 -34.531998,-34.777008 -51.433006,-34.777008c-16.810997,0 -29.075897,14.667999 -43.432899,32.777008c-13.993599,17.365997 -33.713696,26.287994 -50.069798,26.287994l1,-52.537018c16.356102,0 32.076199,-10.17099 46.069798,-27.287994c14.357002,-18.109985 30.621902,-28.777008 47.432899,-28.777008c16.901009,0 33.166008,10.667023 47.433006,28.777008c14.084,17.117004 29.804001,27.287994 46.251007,27.287994c16.264999,0 31.985001,-10.17099 45.979004,-27.287994c14.356995,-18.109985 30.530975,-28.777008 47.523987,-28.777008c16.809998,0 32.985016,10.667023 47.432007,28.777008c13.993988,17.117004 29.804993,27.287994 46.070007,27.287994c16.355988,0 32.166992,-10.17099 46.069977,-27.287994c14.447998,-18.109985 30.622009,-28.777008 47.614014,-28.777008c16.810913,0.000214 41.05545,4.762024 55.412506,22.871429c6.014465,23.022583 21.734497,33.193573 38.090515,33.193573c16.355957,0 31.984985,-10.17099 46.16095,-27.287994c14.266052,-18.109985 30.531006,-28.777008 47.342041,-28.777008c16.992004,0 33.075012,10.667023 47.614014,28.777008c13.902954,17.117004 29.622986,27.287994 45.888,27.287994l-1,50.537018z" transform="rotate(-0.674047 399.299 480.48)"/>
 </g>
</svg>